<svg width="102" height="16" viewBox="0 0 102 16" fill="none" xmlns="http://www.w3.org/2000/svg">
<path d="M5.78182 15.14C4.75515 15.14 3.83515 14.9733 3.02182 14.64C2.20849 14.3067 1.55515 13.8133 1.06182 13.16C0.581819 12.5067 0.328486 11.72 0.301819 10.8H3.94182C3.99515 11.32 4.17515 11.72 4.48182 12C4.78849 12.2667 5.18849 12.4 5.68182 12.4C6.18849 12.4 6.58849 12.2867 6.88182 12.06C7.17515 11.82 7.32182 11.4933 7.32182 11.08C7.32182 10.7333 7.20182 10.4467 6.96182 10.22C6.73515 9.99334 6.44849 9.80668 6.10182 9.66001C5.76849 9.51334 5.28849 9.34668 4.66182 9.16001C3.75515 8.88001 3.01515 8.60001 2.44182 8.32001C1.86849 8.04001 1.37515 7.62668 0.961819 7.08001C0.548485 6.53334 0.341819 5.82001 0.341819 4.94001C0.341819 3.63334 0.815152 2.61334 1.76182 1.88001C2.70849 1.13334 3.94182 0.76001 5.46182 0.76001C7.00849 0.76001 8.25515 1.13334 9.20182 1.88001C10.1485 2.61334 10.6552 3.64001 10.7218 4.96001H7.02182C6.99515 4.50668 6.82849 4.15334 6.52182 3.90001C6.21515 3.63334 5.82182 3.50001 5.34182 3.50001C4.92849 3.50001 4.59515 3.61334 4.34182 3.84001C4.08849 4.05334 3.96182 4.36668 3.96182 4.78001C3.96182 5.23334 4.17515 5.58668 4.60182 5.84001C5.02849 6.09334 5.69515 6.36668 6.60182 6.66001C7.50849 6.96668 8.24182 7.26001 8.80182 7.54001C9.37515 7.82001 9.86849 8.22668 10.2818 8.76001C10.6952 9.29334 10.9018 9.98001 10.9018 10.82C10.9018 11.62 10.6952 12.3467 10.2818 13C9.88182 13.6533 9.29515 14.1733 8.52182 14.56C7.74849 14.9467 6.83515 15.14 5.78182 15.14Z" fill="#4A4A4A"/>
<path d="M16.7789 3.70001V6.54001H21.3589V9.18001H16.7789V12.26H21.9589V15H13.3589V0.96001H21.9589V3.70001H16.7789Z" fill="#4A4A4A"/>
<path d="M23.9517 7.96001C23.9517 6.57334 24.2517 5.34001 24.8517 4.26001C25.4517 3.16668 26.285 2.32001 27.3517 1.72001C28.4317 1.10668 29.6517 0.800009 31.0117 0.800009C32.6783 0.800009 34.105 1.24001 35.2917 2.12001C36.4783 3.00001 37.2717 4.20001 37.6717 5.72001H33.9117C33.6317 5.13334 33.2317 4.68668 32.7117 4.38001C32.205 4.07334 31.625 3.92001 30.9717 3.92001C29.9183 3.92001 29.065 4.28668 28.4117 5.02001C27.7583 5.75334 27.4317 6.73334 27.4317 7.96001C27.4317 9.18668 27.7583 10.1667 28.4117 10.9C29.065 11.6333 29.9183 12 30.9717 12C31.625 12 32.205 11.8467 32.7117 11.54C33.2317 11.2333 33.6317 10.7867 33.9117 10.2H37.6717C37.2717 11.72 36.4783 12.92 35.2917 13.8C34.105 14.6667 32.6783 15.1 31.0117 15.1C29.6517 15.1 28.4317 14.8 27.3517 14.2C26.285 13.5867 25.4517 12.74 24.8517 11.66C24.2517 10.58 23.9517 9.34668 23.9517 7.96001Z" fill="#4A4A4A"/>
<path d="M47.2785 15L44.3585 9.70001H43.5385V15H40.1185V0.96001H45.8585C46.9652 0.96001 47.9052 1.15334 48.6785 1.54001C49.4652 1.92668 50.0518 2.46001 50.4385 3.14001C50.8252 3.80668 51.0185 4.55334 51.0185 5.38001C51.0185 6.31334 50.7518 7.14668 50.2185 7.88001C49.6985 8.61334 48.9252 9.13334 47.8985 9.44001L51.1385 15H47.2785ZM43.5385 7.28001H45.6585C46.2852 7.28001 46.7518 7.12668 47.0585 6.82001C47.3785 6.51334 47.5385 6.08001 47.5385 5.52001C47.5385 4.98668 47.3785 4.56668 47.0585 4.26001C46.7518 3.95334 46.2852 3.80001 45.6585 3.80001H43.5385V7.28001Z" fill="#4A4A4A"/>
<path d="M56.9378 3.70001V6.54001H61.5178V9.18001H56.9378V12.26H62.1178V15H53.5178V0.96001H62.1178V3.70001H56.9378Z" fill="#4A4A4A"/>
<path d="M74.7905 0.96001V3.70001H71.0705V15H67.6505V3.70001H63.9305V0.96001H74.7905Z" fill="#4A4A4A"/>
<path d="M80.2794 3.70001V6.54001H84.8594V9.18001H80.2794V12.26H85.4594V15H76.8594V0.96001H85.4594V3.70001H80.2794Z" fill="#4A4A4A"/>
<path d="M96.7721 12.52H91.5321L90.6921 15H87.1121L92.1921 0.96001H96.1521L101.232 15H97.6121L96.7721 12.52ZM95.8921 9.88001L94.1521 4.74001L92.4321 9.88001H95.8921Z" fill="#4A4A4A"/>
</svg>
