<svg width="2893" height="1059" viewBox="0 0 2893 1059" fill="none" xmlns="http://www.w3.org/2000/svg">
<g filter="url(#filter0_d_80_10)">
<path d="M39.8052 464.234L2889 613.554L2866.12 1050.15L16.9239 900.835L39.8052 464.234Z" fill="#FEDFDC"/>
</g>
<path d="M983.355 705.238C982.874 714.422 980.325 722.742 975.707 730.2C971.097 737.506 964.303 743.264 955.327 747.474C946.35 751.683 935.388 753.449 922.441 752.77L898.503 751.516L895.521 808.424L856.904 806.401L865.212 647.869L927.767 651.148C940.413 651.81 950.988 654.554 959.491 659.377C967.994 664.201 974.228 670.566 978.191 678.473C982.155 686.38 983.876 695.302 983.355 705.238ZM921.115 721.904C928.492 722.29 934.077 720.847 937.872 717.574C941.667 714.3 943.73 709.502 944.061 703.179C944.393 696.856 942.843 691.868 939.411 688.216C935.979 684.564 930.575 682.545 923.198 682.158L902.196 681.057L900.113 720.803L921.115 721.904Z" fill="#4A4A4A"/>
<path d="M1082.7 818.234L1052.86 756.661L1043.6 756.176L1040.47 816.021L1001.85 813.997L1010.16 655.466L1074.97 658.862C1087.47 659.517 1097.97 662.256 1106.47 667.08C1115.12 671.912 1121.43 678.281 1125.39 686.188C1129.37 693.944 1131.11 702.49 1130.62 711.824C1130.07 722.362 1126.56 731.614 1120.11 739.579C1113.8 747.551 1104.76 752.965 1092.99 755.821L1126.28 820.518L1082.7 818.234ZM1045.03 728.851L1068.97 730.106C1076.05 730.476 1081.41 729.021 1085.05 725.74C1088.85 722.467 1090.91 717.668 1091.24 711.345C1091.56 705.323 1090 700.486 1086.57 696.834C1083.29 693.19 1078.11 691.182 1071.03 690.812L1047.09 689.557L1045.03 728.851Z" fill="#4A4A4A"/>
<path d="M1228.08 827.438C1213.18 826.657 1199.66 822.477 1187.53 814.896C1175.54 807.324 1166.19 797.172 1159.46 784.44C1152.89 771.565 1150.01 757.375 1150.82 741.868C1151.63 726.361 1155.98 712.624 1163.85 700.658C1171.87 688.699 1182.24 679.581 1194.95 673.302C1207.81 667.032 1221.69 664.287 1236.59 665.068C1251.5 665.849 1264.94 670.026 1276.92 677.598C1289.06 685.179 1298.34 695.327 1304.77 708.043C1311.34 720.767 1314.23 734.882 1313.42 750.389C1312.6 765.896 1308.26 779.708 1300.37 791.825C1292.5 803.792 1282.21 812.914 1269.5 819.192C1256.79 825.471 1242.99 828.219 1228.08 827.438ZM1229.93 792.209C1242.58 792.872 1252.88 789.185 1260.85 781.149C1268.97 773.12 1273.4 762.181 1274.12 748.33C1274.86 734.328 1271.6 722.986 1264.36 714.304C1257.27 705.478 1247.4 700.734 1234.76 700.071C1221.96 699.401 1211.51 703.004 1203.39 710.882C1195.43 718.768 1191.08 729.787 1190.34 743.939C1189.61 757.94 1192.78 769.354 1199.87 778.179C1207.11 786.862 1217.13 791.539 1229.93 792.209Z" fill="#4A4A4A"/>
<path d="M1445.66 728.561C1443.08 723.142 1439.15 718.935 1433.87 715.941C1428.75 712.804 1422.58 711.047 1415.35 710.668C1402.85 710.013 1392.63 713.629 1384.66 721.515C1376.71 729.25 1372.37 739.968 1371.66 753.668C1370.89 768.271 1374.21 779.918 1381.6 788.609C1389.15 797.157 1399.86 801.794 1413.71 802.52C1423.19 803.017 1431.3 801.026 1438.02 796.548C1444.9 792.077 1450.08 785.405 1453.56 776.529L1404.56 773.961L1406.05 745.507L1490.06 749.909L1488.18 785.816C1484.81 795.301 1479.45 804.003 1472.09 811.92C1464.88 819.845 1455.87 826.091 1445.07 830.658C1434.26 835.224 1422.23 837.16 1408.98 836.466C1393.33 835.645 1379.5 831.524 1367.51 824.102C1355.68 816.538 1346.62 806.477 1340.33 793.919C1334.2 781.369 1331.54 767.266 1332.36 751.608C1333.18 735.951 1337.3 722.203 1344.71 710.363C1352.29 698.381 1362.35 689.322 1374.9 683.186C1387.45 676.9 1401.56 674.167 1417.22 674.987C1436.19 675.981 1451.91 681.41 1464.37 691.272C1476.99 701.142 1484.98 714.317 1488.34 730.798L1445.66 728.561Z" fill="#4A4A4A"/>
<path d="M1591.63 844.906L1561.8 783.334L1552.54 782.848L1549.4 842.693L1510.79 840.669L1519.09 682.138L1583.91 685.535C1596.4 686.189 1606.9 688.929 1615.41 693.752C1624.06 698.584 1630.37 704.953 1634.33 712.86C1638.3 720.616 1640.04 729.162 1639.55 738.496C1639 749.035 1635.5 758.286 1629.04 766.251C1622.74 774.224 1613.7 779.638 1601.92 782.493L1635.22 847.19L1591.63 844.906ZM1553.97 755.523L1577.91 756.778C1584.98 757.149 1590.34 755.693 1593.99 752.412C1597.78 749.139 1599.85 744.341 1600.18 738.017C1600.49 731.995 1598.94 727.158 1595.5 723.506C1592.22 719.862 1587.04 717.855 1579.97 717.484L1556.03 716.229L1553.97 755.523Z" fill="#4A4A4A"/>
<path d="M1707.43 723.032L1705.75 755.099L1757.46 757.809L1755.9 787.619L1704.19 784.908L1702.37 819.686L1760.85 822.751L1759.23 853.69L1662.13 848.601L1670.44 690.069L1767.54 695.158L1765.92 726.097L1707.43 723.032Z" fill="#4A4A4A"/>
<path d="M1845.6 859.801C1834.01 859.194 1823.72 856.767 1814.74 852.522C1805.75 848.277 1798.66 842.32 1793.48 834.651C1788.45 826.99 1786.05 817.958 1786.3 807.554L1827.4 809.708C1827.69 815.611 1829.49 820.234 1832.78 823.577C1836.09 826.77 1840.53 828.512 1846.1 828.804C1851.82 829.104 1856.4 828.061 1859.85 825.675C1863.3 823.138 1865.15 819.537 1865.4 814.87C1865.6 810.955 1864.42 807.647 1861.84 804.946C1859.41 802.252 1856.29 799.975 1852.46 798.114C1848.78 796.26 1843.46 794.095 1836.5 791.616C1826.42 787.918 1818.24 784.318 1811.93 780.818C1805.62 777.317 1800.29 772.358 1795.95 765.94C1791.61 759.523 1789.69 751.346 1790.22 741.41C1790.99 726.656 1796.94 715.419 1808.06 707.699C1819.19 699.828 1833.34 696.342 1850.5 697.242C1867.96 698.157 1881.82 703.11 1892.07 712.101C1902.32 720.942 1907.44 732.834 1907.41 747.778L1865.63 745.589C1865.6 740.454 1863.92 736.366 1860.61 733.324C1857.31 730.131 1852.94 728.393 1847.52 728.109C1842.86 727.864 1839.03 728.947 1836.03 731.356C1833.05 733.615 1831.43 737.078 1831.18 741.745C1830.92 746.864 1833.12 750.98 1837.78 754.093C1842.45 757.206 1849.82 760.687 1859.88 764.536C1869.94 768.535 1878.04 772.281 1884.2 775.774C1890.51 779.275 1895.84 784.158 1900.19 790.425C1904.54 796.692 1906.47 804.567 1905.97 814.052C1905.5 823.085 1902.74 831.168 1897.68 838.301C1892.78 845.441 1885.85 850.965 1876.89 854.874C1867.93 858.782 1857.5 860.425 1845.6 859.801Z" fill="#4A4A4A"/>
<path d="M1988.57 867.294C1976.97 866.686 1966.68 864.26 1957.7 860.015C1948.71 855.769 1941.63 849.812 1936.44 842.143C1931.41 834.482 1929.01 825.45 1929.26 815.046L1970.36 817.2C1970.65 823.103 1972.45 827.726 1975.74 831.069C1979.05 834.262 1983.49 836.004 1989.06 836.296C1994.78 836.596 1999.36 835.553 2002.81 833.167C2006.26 830.631 2008.11 827.029 2008.36 822.362C2008.56 818.447 2007.38 815.14 2004.8 812.438C2002.38 809.745 1999.25 807.467 1995.42 805.606C1991.74 803.753 1986.42 801.587 1979.46 799.108C1969.39 795.41 1961.2 791.811 1954.89 788.31C1948.58 784.809 1943.25 779.85 1938.91 773.433C1934.57 767.015 1932.66 758.839 1933.18 748.902C1933.95 734.148 1939.9 722.911 1951.02 715.191C1962.15 707.32 1976.3 703.834 1993.46 704.734C2010.93 705.649 2024.78 710.602 2035.03 719.593C2045.28 728.434 2050.4 740.326 2050.37 755.27L2008.59 753.081C2008.56 747.946 2006.89 743.858 2003.57 740.816C2000.27 737.624 1995.91 735.885 1990.49 735.601C1985.82 735.357 1981.99 736.439 1978.99 738.849C1976.01 741.108 1974.39 744.571 1974.15 749.238C1973.88 754.356 1976.08 758.472 1980.74 761.585C1985.41 764.698 1992.78 768.179 2002.84 772.028C2012.9 776.027 2021.01 779.773 2027.16 783.266C2033.47 786.767 2038.8 791.651 2043.15 797.917C2047.5 804.184 2049.43 812.06 2048.93 821.545C2048.46 830.578 2045.7 838.66 2040.64 845.793C2035.74 852.933 2028.81 858.458 2019.85 862.366C2010.89 866.274 2000.46 867.917 1988.57 867.294Z" fill="#4A4A4A"/>
<g filter="url(#filter1_d_80_10)">
<path d="M4 149.526L2853.2 0.206135L2876.08 436.807L26.8813 586.127L4 149.526Z" fill="#FFE9E5"/>
</g>
<path d="M1155.18 227.558L1122.16 388.255L1075.41 390.704L1044.65 287.697L1023.92 393.403L977.178 395.853L928.673 239.428L969.999 237.262L998.855 351.465L1021.04 234.588L1063.49 232.363L1096.64 346.34L1113.63 229.735L1155.18 227.558Z" fill="#4A4A4A"/>
<path d="M1261.93 382.514C1247.03 383.296 1233.15 380.551 1220.29 374.28C1207.58 368.002 1197.21 358.883 1189.19 346.925C1181.31 334.808 1176.96 320.996 1176.15 305.489C1175.34 289.982 1178.22 275.867 1184.8 263.143C1191.53 250.411 1200.89 240.259 1212.87 232.686C1225 225.106 1238.52 220.925 1253.42 220.144C1268.33 219.363 1282.14 222.112 1294.84 228.39C1307.7 234.661 1317.99 243.783 1325.72 255.758C1333.59 267.724 1337.93 281.461 1338.75 296.968C1339.56 312.474 1336.68 326.665 1330.11 339.54C1323.53 352.264 1314.25 362.412 1302.26 369.984C1290.28 377.557 1276.84 381.733 1261.93 382.514ZM1260.09 347.285C1272.73 346.623 1282.6 341.878 1289.69 333.053C1296.92 324.22 1300.18 312.878 1299.45 299.027C1298.72 285.026 1294.29 274.086 1286.18 266.208C1278.21 258.172 1267.91 254.485 1255.26 255.148C1242.46 255.818 1232.44 260.495 1225.2 269.178C1218.1 277.852 1214.93 289.266 1215.67 303.418C1216.4 317.419 1220.75 328.438 1228.72 336.474C1236.84 344.352 1247.29 347.956 1260.09 347.285Z" fill="#4A4A4A"/>
<path d="M1449.28 371.111L1413.17 312.995L1403.91 313.48L1407.05 373.324L1368.43 375.348L1360.12 216.817L1424.94 213.42C1437.43 212.765 1448.16 214.392 1457.12 218.3C1466.23 222.201 1473.17 227.876 1477.94 235.325C1482.7 242.624 1485.33 250.94 1485.81 260.275C1486.37 270.813 1483.85 280.381 1478.26 288.977C1472.82 297.565 1464.4 303.894 1452.99 307.964L1492.86 368.827L1449.28 371.111ZM1402.48 286.155L1426.42 284.9C1433.49 284.529 1438.67 282.522 1441.95 278.878C1445.38 275.226 1446.93 270.238 1446.6 263.915C1446.29 257.893 1444.23 253.245 1440.44 249.972C1436.79 246.69 1431.43 245.235 1424.36 245.606L1400.42 246.861L1402.48 286.155Z" fill="#4A4A4A"/>
<path d="M1611.68 362.6L1554.72 295.386L1558.39 365.393L1519.77 367.417L1511.46 208.885L1550.08 206.862L1553.73 276.417L1602.92 204.092L1648.32 201.713L1590.96 282.617L1658.88 360.126L1611.68 362.6Z" fill="#4A4A4A"/>
<path d="M1763.45 195.68L1771.75 354.211L1733.14 356.235L1724.83 197.703L1763.45 195.68Z" fill="#4A4A4A"/>
<path d="M1945.58 345.101L1906.97 347.125L1837.25 252.726L1842.38 350.509L1803.76 352.533L1795.45 194.002L1834.07 191.978L1903.81 286.829L1898.66 188.593L1937.27 186.57L1945.58 345.101Z" fill="#4A4A4A"/>
<defs>
<filter id="filter0_d_80_10" x="12.924" y="464.234" width="2880.08" height="593.921" filterUnits="userSpaceOnUse" color-interpolation-filters="sRGB">
<feFlood flood-opacity="0" result="BackgroundImageFix"/>
<feColorMatrix in="SourceAlpha" type="matrix" values="0 0 0 0 0 0 0 0 0 0 0 0 0 0 0 0 0 0 127 0" result="hardAlpha"/>
<feOffset dy="4"/>
<feGaussianBlur stdDeviation="2"/>
<feComposite in2="hardAlpha" operator="out"/>
<feColorMatrix type="matrix" values="0 0 0 0 0 0 0 0 0 0 0 0 0 0 0 0 0 0 0.25 0"/>
<feBlend mode="normal" in2="BackgroundImageFix" result="effect1_dropShadow_80_10"/>
<feBlend mode="normal" in="SourceGraphic" in2="effect1_dropShadow_80_10" result="shape"/>
</filter>
<filter id="filter1_d_80_10" x="0" y="0.206055" width="2880.08" height="593.921" filterUnits="userSpaceOnUse" color-interpolation-filters="sRGB">
<feFlood flood-opacity="0" result="BackgroundImageFix"/>
<feColorMatrix in="SourceAlpha" type="matrix" values="0 0 0 0 0 0 0 0 0 0 0 0 0 0 0 0 0 0 127 0" result="hardAlpha"/>
<feOffset dy="4"/>
<feGaussianBlur stdDeviation="2"/>
<feComposite in2="hardAlpha" operator="out"/>
<feColorMatrix type="matrix" values="0 0 0 0 0 0 0 0 0 0 0 0 0 0 0 0 0 0 0.25 0"/>
<feBlend mode="normal" in2="BackgroundImageFix" result="effect1_dropShadow_80_10"/>
<feBlend mode="normal" in="SourceGraphic" in2="effect1_dropShadow_80_10" result="shape"/>
</filter>
</defs>
</svg>
